<svg xmlns="http://www.w3.org/2000/svg" viewBox="0 0 1200 300" width="1200" height="300">
  <defs>
    <linearGradient id="bg" x1="0%" y1="0%" x2="100%" y2="100%">
      <stop offset="0%" stop-color="#f6f8fa"/>
      <stop offset="40%" stop-color="#eef1f5"/>
      <stop offset="100%" stop-color="#f6f8fa"/>
    </linearGradient>
    <linearGradient id="carRed" x1="0%" y1="0%" x2="100%" y2="0%">
      <stop offset="0%" stop-color="#DC0000"/>
      <stop offset="50%" stop-color="#FF1801"/>
      <stop offset="100%" stop-color="#FF4500"/>
    </linearGradient>
    <linearGradient id="carDark" x1="0%" y1="0%" x2="0%" y2="100%">
      <stop offset="0%" stop-color="#B80000"/>
      <stop offset="100%" stop-color="#8B0000"/>
    </linearGradient>
    <linearGradient id="carHighlight" x1="0%" y1="0%" x2="0%" y2="100%">
      <stop offset="0%" stop-color="#FF4500" stop-opacity="0.8"/>
      <stop offset="100%" stop-color="#FF1801" stop-opacity="0"/>
    </linearGradient>
    <linearGradient id="speedRed" x1="0%" y1="0%" x2="100%" y2="0%">
      <stop offset="0%" stop-color="#FF1801" stop-opacity="0"/>
      <stop offset="100%" stop-color="#FF4500" stop-opacity="0.5"/>
    </linearGradient>
    <linearGradient id="speedBlue" x1="0%" y1="0%" x2="100%" y2="0%">
      <stop offset="0%" stop-color="#0969da" stop-opacity="0"/>
      <stop offset="100%" stop-color="#0969da" stop-opacity="0.25"/>
    </linearGradient>
    <radialGradient id="exhaust" cx="0%" cy="50%" r="100%">
      <stop offset="0%" stop-color="#FFA500" stop-opacity="0.85"/>
      <stop offset="25%" stop-color="#FF6600" stop-opacity="0.5"/>
      <stop offset="60%" stop-color="#DC0000" stop-opacity="0.2"/>
      <stop offset="100%" stop-color="#DC0000" stop-opacity="0"/>
    </radialGradient>
    <radialGradient id="sparkGlow" cx="50%" cy="50%" r="50%">
      <stop offset="0%" stop-color="#FFDD44" stop-opacity="1"/>
      <stop offset="100%" stop-color="#FFAA00" stop-opacity="0"/>
    </radialGradient>
    <linearGradient id="roadGrad" x1="0%" y1="0%" x2="0%" y2="100%">
      <stop offset="0%" stop-color="#c8cdd5"/>
      <stop offset="100%" stop-color="#b8bec8"/>
    </linearGradient>
    <linearGradient id="tireGrad" x1="0%" y1="0%" x2="100%" y2="100%">
      <stop offset="0%" stop-color="#3a3a40"/>
      <stop offset="100%" stop-color="#222228"/>
    </linearGradient>
    <linearGradient id="rimGrad" x1="0%" y1="0%" x2="100%" y2="100%">
      <stop offset="0%" stop-color="#666"/>
      <stop offset="100%" stop-color="#444"/>
    </linearGradient>
    <linearGradient id="wingGrad" x1="0%" y1="100%" x2="0%" y2="0%">
      <stop offset="0%" stop-color="#2a2a30"/>
      <stop offset="100%" stop-color="#444"/>
    </linearGradient>
    <filter id="glow" x="-30%" y="-30%" width="160%" height="160%">
      <feGaussianBlur stdDeviation="1.5" result="b"/>
      <feComposite in="SourceGraphic" in2="b" operator="over"/>
    </filter>
    <filter id="softGlow" x="-50%" y="-50%" width="200%" height="200%">
      <feGaussianBlur stdDeviation="3" result="b"/>
      <feMerge><feMergeNode in="b"/><feMergeNode in="SourceGraphic"/></feMerge>
    </filter>
    <filter id="bigGlow" x="-100%" y="-100%" width="300%" height="300%">
      <feGaussianBlur stdDeviation="5"/>
    </filter>
    <filter id="sparkFilter" x="-200%" y="-200%" width="500%" height="500%">
      <feGaussianBlur stdDeviation="1.5" result="b"/>
      <feMerge><feMergeNode in="b"/><feMergeNode in="b"/><feMergeNode in="SourceGraphic"/></feMerge>
    </filter>
    <clipPath id="svgClip"><rect width="1200" height="300" rx="14"/></clipPath>
  </defs>

  <!-- Background -->
  <rect width="1200" height="300" fill="url(#bg)" rx="14" stroke="#d0d7de" stroke-width="1"/>

  <!-- Grid -->
  <g opacity="0.04" clip-path="url(#svgClip)">
    <line x1="0" y1="50" x2="1200" y2="50" stroke="#0969da" stroke-width="0.5"/>
    <line x1="0" y1="100" x2="1200" y2="100" stroke="#0969da" stroke-width="0.5"/>
    <line x1="0" y1="150" x2="1200" y2="150" stroke="#0969da" stroke-width="0.5"/>
    <line x1="200" y1="0" x2="200" y2="300" stroke="#0969da" stroke-width="0.5"/>
    <line x1="400" y1="0" x2="400" y2="300" stroke="#0969da" stroke-width="0.5"/>
    <line x1="600" y1="0" x2="600" y2="300" stroke="#0969da" stroke-width="0.5"/>
    <line x1="800" y1="0" x2="800" y2="300" stroke="#0969da" stroke-width="0.5"/>
    <line x1="1000" y1="0" x2="1000" y2="300" stroke="#0969da" stroke-width="0.5"/>
  </g>

  <!-- Road -->
  <rect x="0" y="237" width="1200" height="63" fill="url(#roadGrad)" clip-path="url(#svgClip)"/>

  <!-- Kerbs -->
  <g clip-path="url(#svgClip)">
    <rect x="0" y="235" width="30" height="5" fill="#DC0000"/>
    <rect x="30" y="235" width="30" height="5" fill="#ffffff"/>
    <rect x="60" y="235" width="30" height="5" fill="#DC0000"/>
    <rect x="90" y="235" width="30" height="5" fill="#ffffff"/>
    <rect x="120" y="235" width="30" height="5" fill="#DC0000"/>
    <rect x="150" y="235" width="30" height="5" fill="#ffffff"/>
    <rect x="180" y="235" width="30" height="5" fill="#DC0000"/>
    <rect x="210" y="235" width="30" height="5" fill="#ffffff"/>
    <rect x="240" y="235" width="30" height="5" fill="#DC0000"/>
    <rect x="270" y="235" width="30" height="5" fill="#ffffff"/>
    <rect x="300" y="235" width="30" height="5" fill="#DC0000"/>
    <rect x="330" y="235" width="30" height="5" fill="#ffffff"/>
    <rect x="360" y="235" width="30" height="5" fill="#DC0000"/>
    <rect x="390" y="235" width="30" height="5" fill="#ffffff"/>
    <rect x="420" y="235" width="30" height="5" fill="#DC0000"/>
    <rect x="450" y="235" width="30" height="5" fill="#ffffff"/>
    <rect x="480" y="235" width="30" height="5" fill="#DC0000"/>
    <rect x="510" y="235" width="30" height="5" fill="#ffffff"/>
    <rect x="540" y="235" width="30" height="5" fill="#DC0000"/>
    <rect x="570" y="235" width="30" height="5" fill="#ffffff"/>
    <rect x="600" y="235" width="30" height="5" fill="#DC0000"/>
    <rect x="630" y="235" width="30" height="5" fill="#ffffff"/>
    <rect x="660" y="235" width="30" height="5" fill="#DC0000"/>
    <rect x="690" y="235" width="30" height="5" fill="#ffffff"/>
    <rect x="720" y="235" width="30" height="5" fill="#DC0000"/>
    <rect x="750" y="235" width="30" height="5" fill="#ffffff"/>
    <rect x="780" y="235" width="30" height="5" fill="#DC0000"/>
    <rect x="810" y="235" width="30" height="5" fill="#ffffff"/>
    <rect x="840" y="235" width="30" height="5" fill="#DC0000"/>
    <rect x="870" y="235" width="30" height="5" fill="#ffffff"/>
    <rect x="900" y="235" width="30" height="5" fill="#DC0000"/>
    <rect x="930" y="235" width="30" height="5" fill="#ffffff"/>
    <rect x="960" y="235" width="30" height="5" fill="#DC0000"/>
    <rect x="990" y="235" width="30" height="5" fill="#ffffff"/>
    <rect x="1020" y="235" width="30" height="5" fill="#DC0000"/>
    <rect x="1050" y="235" width="30" height="5" fill="#ffffff"/>
    <rect x="1080" y="235" width="30" height="5" fill="#DC0000"/>
    <rect x="1110" y="235" width="30" height="5" fill="#ffffff"/>
    <rect x="1140" y="235" width="30" height="5" fill="#DC0000"/>
    <rect x="1170" y="235" width="30" height="5" fill="#ffffff"/>
  </g>

  <!-- Road center dashes -->
  <g opacity="0.25">
    <rect x="20" y="265" width="55" height="3" rx="1.5" fill="#8c959f"/>
    <rect x="95" y="265" width="55" height="3" rx="1.5" fill="#8c959f"/>
    <rect x="170" y="265" width="55" height="3" rx="1.5" fill="#8c959f"/>
    <rect x="245" y="265" width="55" height="3" rx="1.5" fill="#8c959f"/>
    <rect x="320" y="265" width="55" height="3" rx="1.5" fill="#8c959f"/>
    <rect x="395" y="265" width="55" height="3" rx="1.5" fill="#8c959f"/>
    <rect x="470" y="265" width="55" height="3" rx="1.5" fill="#8c959f"/>
    <rect x="545" y="265" width="55" height="3" rx="1.5" fill="#8c959f"/>
    <rect x="620" y="265" width="55" height="3" rx="1.5" fill="#8c959f"/>
    <rect x="695" y="265" width="55" height="3" rx="1.5" fill="#8c959f"/>
    <rect x="770" y="265" width="55" height="3" rx="1.5" fill="#8c959f"/>
    <rect x="845" y="265" width="55" height="3" rx="1.5" fill="#8c959f"/>
    <rect x="920" y="265" width="55" height="3" rx="1.5" fill="#8c959f"/>
    <rect x="995" y="265" width="55" height="3" rx="1.5" fill="#8c959f"/>
    <rect x="1070" y="265" width="55" height="3" rx="1.5" fill="#8c959f"/>
    <rect x="1145" y="265" width="55" height="3" rx="1.5" fill="#8c959f"/>
  </g>
  <line x1="0" y1="290" x2="1200" y2="290" stroke="#afb8c1" stroke-width="2" clip-path="url(#svgClip)"/>

  <!-- Title -->
  <text x="600" y="65" text-anchor="middle" font-family="'SF Pro Display','Segoe UI',Helvetica,Arial,sans-serif" font-size="26" font-weight="800" fill="#0969da" letter-spacing="8" opacity="0.85">FULL SPEED AHEAD</text>
  <text x="600" y="92" text-anchor="middle" font-family="'SF Pro Display','Segoe UI',Helvetica,Arial,sans-serif" font-size="11" fill="#57606a" letter-spacing="4" opacity="0.65">ENGINEERING AT THE SPEED OF INNOVATION</text>

  <!-- Particles -->
  <circle cx="80" cy="120" r="1.2" fill="#0969da" opacity="0">
    <animate attributeName="opacity" values="0;0.5;0" dur="3.5s" repeatCount="indefinite"/>
  </circle>
  <circle cx="250" cy="140" r="1" fill="#DC0000" opacity="0">
    <animate attributeName="opacity" values="0;0.4;0" dur="4s" repeatCount="indefinite" begin="0.8s"/>
  </circle>
  <circle cx="500" cy="110" r="1.4" fill="#0969da" opacity="0">
    <animate attributeName="opacity" values="0;0.5;0" dur="3s" repeatCount="indefinite" begin="1.5s"/>
  </circle>
  <circle cx="750" cy="130" r="1" fill="#DC0000" opacity="0">
    <animate attributeName="opacity" values="0;0.4;0" dur="4.2s" repeatCount="indefinite" begin="2.2s"/>
  </circle>
  <circle cx="950" cy="115" r="1.3" fill="#0969da" opacity="0">
    <animate attributeName="opacity" values="0;0.5;0" dur="3.8s" repeatCount="indefinite" begin="0.5s"/>
  </circle>

  <!-- F1 CAR -->
  <g filter="url(#glow)">
    <animateTransform attributeName="transform" type="translate" values="-350,0;1500,0" dur="6.5s" repeatCount="indefinite" calcMode="spline" keySplines="0.25 0.1 0.25 1"/>

    <!-- Speed lines -->
    <g opacity="0.4">
      <line x1="-240" y1="185" x2="15" y2="185" stroke="url(#speedRed)" stroke-width="2.5"/>
      <line x1="-200" y1="195" x2="20" y2="195" stroke="url(#speedRed)" stroke-width="2"/>
      <line x1="-260" y1="205" x2="10" y2="205" stroke="url(#speedRed)" stroke-width="1.8"/>
      <line x1="-180" y1="215" x2="25" y2="215" stroke="url(#speedRed)" stroke-width="1.5"/>
      <line x1="-220" y1="225" x2="18" y2="225" stroke="url(#speedRed)" stroke-width="1.2"/>
    </g>
    <g opacity="0.18">
      <line x1="-140" y1="190" x2="10" y2="190" stroke="url(#speedBlue)" stroke-width="1.2"/>
      <line x1="-160" y1="210" x2="15" y2="210" stroke="url(#speedBlue)" stroke-width="1"/>
    </g>

    <!-- Exhaust -->
    <g filter="url(#bigGlow)">
      <ellipse cx="-2" cy="218" rx="22" ry="8" fill="url(#exhaust)" opacity="0.8">
        <animate attributeName="rx" values="22;28;18;25;22" dur="0.12s" repeatCount="indefinite"/>
        <animate attributeName="opacity" values="0.8;0.45;0.8" dur="0.08s" repeatCount="indefinite"/>
      </ellipse>
      <ellipse cx="-8" cy="218" rx="12" ry="5" fill="#FFCC00" opacity="0.45">
        <animate attributeName="rx" values="12;16;10;14;12" dur="0.1s" repeatCount="indefinite"/>
      </ellipse>
    </g>

    <!-- Floor sparks -->
    <g filter="url(#sparkFilter)">
      <circle r="2" fill="#FFD700" opacity="0">
        <animate attributeName="cx" values="150;110;70" dur="0.45s" repeatCount="indefinite"/>
        <animate attributeName="cy" values="232;218;200" dur="0.45s" repeatCount="indefinite"/>
        <animate attributeName="opacity" values="1;0.8;0" dur="0.45s" repeatCount="indefinite"/>
        <animate attributeName="r" values="2;1.5;0.5" dur="0.45s" repeatCount="indefinite"/>
      </circle>
      <circle r="1.8" fill="#FFAA00" opacity="0">
        <animate attributeName="cx" values="160;125;90" dur="0.5s" repeatCount="indefinite" begin="0.08s"/>
        <animate attributeName="cy" values="232;215;195" dur="0.5s" repeatCount="indefinite" begin="0.08s"/>
        <animate attributeName="opacity" values="1;0.7;0" dur="0.5s" repeatCount="indefinite" begin="0.08s"/>
        <animate attributeName="r" values="1.8;1.2;0.3" dur="0.5s" repeatCount="indefinite" begin="0.08s"/>
      </circle>
      <circle r="2.2" fill="#FFE066" opacity="0">
        <animate attributeName="cx" values="140;95;50" dur="0.4s" repeatCount="indefinite" begin="0.15s"/>
        <animate attributeName="cy" values="232;222;210" dur="0.4s" repeatCount="indefinite" begin="0.15s"/>
        <animate attributeName="opacity" values="1;0.6;0" dur="0.4s" repeatCount="indefinite" begin="0.15s"/>
        <animate attributeName="r" values="2.2;1.5;0.4" dur="0.4s" repeatCount="indefinite" begin="0.15s"/>
      </circle>
      <circle r="1.5" fill="#FFD700" opacity="0">
        <animate attributeName="cx" values="170;140;110" dur="0.55s" repeatCount="indefinite" begin="0.22s"/>
        <animate attributeName="cy" values="232;210;188" dur="0.55s" repeatCount="indefinite" begin="0.22s"/>
        <animate attributeName="opacity" values="1;0.75;0" dur="0.55s" repeatCount="indefinite" begin="0.22s"/>
        <animate attributeName="r" values="1.5;1;0.2" dur="0.55s" repeatCount="indefinite" begin="0.22s"/>
      </circle>
      <circle r="1.8" fill="#FFCC33" opacity="0">
        <animate attributeName="cx" values="130;85;40" dur="0.38s" repeatCount="indefinite" begin="0.05s"/>
        <animate attributeName="cy" values="232;220;205" dur="0.38s" repeatCount="indefinite" begin="0.05s"/>
        <animate attributeName="opacity" values="1;0.65;0" dur="0.38s" repeatCount="indefinite" begin="0.05s"/>
        <animate attributeName="r" values="1.8;1.2;0.3" dur="0.38s" repeatCount="indefinite" begin="0.05s"/>
      </circle>
      <circle r="2" fill="#FFD700" opacity="0">
        <animate attributeName="cx" values="180;150;120" dur="0.48s" repeatCount="indefinite" begin="0.18s"/>
        <animate attributeName="cy" values="232;216;198" dur="0.48s" repeatCount="indefinite" begin="0.18s"/>
        <animate attributeName="opacity" values="1;0.7;0" dur="0.48s" repeatCount="indefinite" begin="0.18s"/>
        <animate attributeName="r" values="2;1.3;0.4" dur="0.48s" repeatCount="indefinite" begin="0.18s"/>
      </circle>
      <circle r="1.2" fill="#fff" opacity="0">
        <animate attributeName="cx" values="155;100;45" dur="0.42s" repeatCount="indefinite" begin="0.12s"/>
        <animate attributeName="cy" values="232;225;215" dur="0.42s" repeatCount="indefinite" begin="0.12s"/>
        <animate attributeName="opacity" values="1;0.5;0" dur="0.42s" repeatCount="indefinite" begin="0.12s"/>
      </circle>
      <circle r="1.6" fill="#FFD700" opacity="0">
        <animate attributeName="cx" values="145;105;65" dur="0.52s" repeatCount="indefinite" begin="0.28s"/>
        <animate attributeName="cy" values="232;212;190" dur="0.52s" repeatCount="indefinite" begin="0.28s"/>
        <animate attributeName="opacity" values="1;0.6;0" dur="0.52s" repeatCount="indefinite" begin="0.28s"/>
        <animate attributeName="r" values="1.6;1;0.2" dur="0.52s" repeatCount="indefinite" begin="0.28s"/>
      </circle>
    </g>

    <!-- Ground shadow -->
    <ellipse cx="160" cy="243" rx="110" ry="6" fill="#000" opacity="0.2"/>

    <!-- FLOOR -->
    <rect x="30" y="228" width="258" height="3" rx="1" fill="#444" opacity="0.6"/>

    <!-- REAR WING -->
    <path d="M 18,175 L 22,175 L 24,235 L 16,235 Z" fill="url(#wingGrad)" opacity="0.9"/>
    <path d="M 50,175 L 54,175 L 54,235 L 50,235 Z" fill="url(#wingGrad)" opacity="0.9"/>
    <rect x="16" y="177" width="40" height="7" rx="1.5" fill="#DC0000"/>
    <rect x="19" y="170" width="34" height="5" rx="1" fill="#B80000"/>
    <rect x="30" y="184" width="4" height="30" rx="1" fill="#8B0000"/>
    <rect x="42" y="184" width="3" height="28" rx="1" fill="#8B0000"/>

    <!-- REAR DIFFUSER -->
    <path d="M 22,225 L 35,218 L 35,232 L 22,232 Z" fill="#ddd" opacity="0.5"/>
    <path d="M 28,222 L 38,216 L 38,232 L 28,232 Z" fill="#ddd" opacity="0.3"/>
    <rect x="22" y="210" width="12" height="18" rx="2" fill="#8B0000"/>
    <rect x="24" y="212" width="8" height="3" rx="1.5" fill="#FF0000" filter="url(#softGlow)">
      <animate attributeName="opacity" values="1;0.4;1" dur="0.6s" repeatCount="indefinite"/>
    </rect>

    <!-- ENGINE COVER -->
    <path d="M 35,214 L 38,208 L 45,198 L 55,192 L 75,184 L 100,178 L 120,174 L 120,228 L 35,228 Z" fill="url(#carRed)"/>
    <path d="M 120,174 L 135,170 L 150,168 L 150,228 L 120,228 Z" fill="#FF1801"/>
    <path d="M 55,220 L 75,210 L 100,205 L 130,202 L 150,203 L 150,228 L 55,228 Z" fill="url(#carDark)" opacity="0.55"/>

    <!-- AIRBOX -->
    <path d="M 148,168 L 153,155 L 160,152 L 168,152 L 172,157 L 172,170 Z" fill="#DC0000"/>
    <rect x="158" y="149" width="6" height="5" rx="2" fill="#333"/>

    <!-- COCKPIT -->
    <path d="M 162,170 L 168,168 L 180,170 L 185,174 L 180,178 L 165,178 L 160,175 Z" fill="#f6f8fa"/>

    <!-- HALO -->
    <path d="M 157,176 Q 160,162 172,158 Q 184,155 190,168" fill="none" stroke="#57606a" stroke-width="5" stroke-linecap="round"/>
    <path d="M 158,174 Q 162,163 172,159 Q 182,156 188,167" fill="none" stroke="#8b949e" stroke-width="2" stroke-linecap="round" opacity="0.5"/>

    <!-- MONOCOQUE -->
    <path d="M 150,168 L 172,170 L 192,172 L 210,178 L 230,186 L 245,192 L 255,198 L 255,228 L 150,228 Z" fill="url(#carRed)"/>
    <path d="M 100,178 L 120,174 L 150,168 L 172,170 L 150,175 L 120,180 L 100,184 Z" fill="url(#carHighlight)" opacity="0.6"/>

    <!-- NOSE -->
    <path d="M 255,198 L 268,204 L 278,210 L 282,214 L 282,220 L 278,224 L 270,226 L 260,226 L 255,228 L 255,198 Z" fill="#FF1801"/>
    <path d="M 270,208 L 280,214 L 278,218 L 268,212 Z" fill="#FF4500" opacity="0.5"/>
    <line x1="284" y1="216" x2="296" y2="216" stroke="#999" stroke-width="1" opacity="0.6"/>

    <!-- FRONT WING -->
    <path d="M 288,208 L 292,208 L 292,242 L 288,242 Z" fill="#444"/>
    <path d="M 260,236 L 292,236 L 292,240 L 260,240 Z" fill="url(#wingGrad)"/>
    <path d="M 264,231 L 290,231 L 290,234 L 264,234 Z" fill="#DC0000"/>
    <path d="M 268,226 L 288,226 L 288,229 L 268,229 Z" fill="#B80000"/>
    <path d="M 258,224 L 261,224 L 261,242 L 258,242 Z" fill="#444" opacity="0.7"/>

    <!-- NUMBER -->
    <text x="115" y="210" font-family="'Arial Black','Impact',sans-serif" font-size="22" font-weight="900" fill="#fff" opacity="0.85">07</text>
    <rect x="80" y="195" width="60" height="2" rx="1" fill="#fff" opacity="0.3"/>
    <line x1="55" y1="192" x2="100" y2="178" stroke="#FF6600" stroke-width="0.6" opacity="0.5"/>

    <!-- MIRRORS -->
    <rect x="192" y="172" width="5" height="4" rx="1" fill="#333"/>
    <rect x="185" y="175" width="5" height="4" rx="1" fill="#333"/>

    <!-- FRONT WHEELS -->
    <circle cx="262" cy="238" r="16" fill="#222"/>
    <circle cx="262" cy="238" r="14.5" fill="url(#tireGrad)"/>
    <circle cx="262" cy="238" r="10" fill="#222"/>
    <circle cx="262" cy="238" r="8" fill="url(#rimGrad)"/>
    <circle cx="262" cy="238" r="3" fill="#777"/>
    <circle cx="262" cy="238" r="12.5" fill="none" stroke="#444" stroke-width="1" stroke-dasharray="4,6" opacity="0.5"/>
    <g>
      <line x1="262" y1="224" x2="262" y2="252" stroke="#666" stroke-width="0.8"/>
      <line x1="248" y1="238" x2="276" y2="238" stroke="#666" stroke-width="0.8"/>
      <line x1="252" y1="228" x2="272" y2="248" stroke="#666" stroke-width="0.6"/>
      <line x1="252" y1="248" x2="272" y2="228" stroke="#666" stroke-width="0.6"/>
      <animateTransform attributeName="transform" type="rotate" from="0 262 238" to="360 262 238" dur="0.12s" repeatCount="indefinite"/>
    </g>
    <rect x="250" y="232" width="5" height="12" rx="1" fill="#333" opacity="0.6"/>

    <!-- REAR WHEELS -->
    <circle cx="62" cy="238" r="18" fill="#222"/>
    <circle cx="62" cy="238" r="16.5" fill="url(#tireGrad)"/>
    <circle cx="62" cy="238" r="11.5" fill="#222"/>
    <circle cx="62" cy="238" r="9" fill="url(#rimGrad)"/>
    <circle cx="62" cy="238" r="3.5" fill="#777"/>
    <circle cx="62" cy="238" r="14" fill="none" stroke="#444" stroke-width="1" stroke-dasharray="5,7" opacity="0.5"/>
    <g>
      <line x1="62" y1="220" x2="62" y2="256" stroke="#666" stroke-width="0.8"/>
      <line x1="44" y1="238" x2="80" y2="238" stroke="#666" stroke-width="0.8"/>
      <line x1="50" y1="226" x2="74" y2="250" stroke="#666" stroke-width="0.6"/>
      <line x1="50" y1="250" x2="74" y2="226" stroke="#666" stroke-width="0.6"/>
      <animateTransform attributeName="transform" type="rotate" from="0 62 238" to="360 62 238" dur="0.12s" repeatCount="indefinite"/>
    </g>
    <rect x="73" y="230" width="6" height="16" rx="1" fill="#333" opacity="0.6"/>

    <!-- Tire smoke -->
    <g opacity="0.08">
      <circle cx="45" cy="242" r="8" fill="#6e7681">
        <animate attributeName="cx" values="45;20;-5" dur="0.7s" repeatCount="indefinite"/>
        <animate attributeName="opacity" values="0.08;0.03;0" dur="0.7s" repeatCount="indefinite"/>
        <animate attributeName="r" values="8;14;20" dur="0.7s" repeatCount="indefinite"/>
      </circle>
    </g>
  </g>
</svg>